<svg id="svg" xmlns="http://www.w3.org/2000/svg" xmlns:xlink="http://www.w3.org/1999/xlink" width="400" height="266.8136714443219" viewBox="0, 0, 400,266.8136714443219"><g id="svgg"><path id="path0" d="M48.535 9.112 C 47.610 10.288,47.585 10.655,48.300 12.569 L 48.630 13.451 47.939 12.569 C 46.730 11.025,45.973 12.405,47.134 14.036 C 48.339 15.728,48.356 16.359,47.157 14.833 C 45.951 13.301,45.842 13.335,44.429 15.674 C 42.954 18.116,42.955 18.082,44.351 18.082 C 47.858 18.082,50.378 22.388,48.085 24.463 C 46.200 26.169,42.536 24.592,43.632 22.545 C 44.165 21.549,45.614 21.287,46.115 22.098 C 46.315 22.421,46.121 22.492,45.542 22.309 C 45.008 22.139,44.450 22.293,44.110 22.702 C 42.888 24.174,45.593 25.346,47.659 24.240 C 50.224 22.867,47.402 18.338,44.151 18.610 C 40.901 18.882,35.189 30.022,36.734 33.076 C 38.743 37.049,45.189 34.982,44.894 30.459 C 44.734 28.007,41.896 26.909,41.896 29.300 C 41.896 30.069,42.143 30.441,42.668 30.465 C 43.237 30.490,43.276 30.564,42.817 30.746 C 41.916 31.102,40.947 29.615,41.458 28.660 C 42.679 26.380,45.424 27.752,45.424 30.642 C 45.424 35.715,38.371 37.565,36.287 33.040 C 35.212 30.706,35.422 30.508,30.923 38.084 C 26.515 45.507,26.551 45.412,27.708 46.459 C 28.964 47.595,29.315 47.387,31.321 44.309 C 32.353 42.725,33.283 41.515,33.387 41.620 C 33.492 41.724,32.869 42.796,32.004 44.001 C 31.138 45.206,30.430 46.416,30.430 46.690 C 30.430 47.831,31.865 47.055,33.165 45.211 C 33.932 44.123,34.644 43.318,34.748 43.421 C 34.852 43.525,34.518 44.197,34.006 44.916 C 32.955 46.392,32.842 47.037,33.592 47.287 C 33.906 47.392,33.375 48.537,32.229 50.224 C 29.970 53.551,29.982 53.572,33.627 52.616 C 36.476 51.868,36.565 51.872,39.771 52.877 C 45.055 54.535,47.807 52.732,47.836 47.594 C 47.854 44.282,46.737 42.620,44.355 42.419 C 41.529 42.180,39.132 44.791,40.578 46.533 C 41.406 47.531,43.692 47.382,43.972 46.311 C 44.098 45.829,44.369 45.538,44.573 45.664 C 45.234 46.073,44.513 47.094,43.170 47.650 C 42.000 48.135,41.747 48.084,40.777 47.172 C 38.276 44.823,40.698 41.693,44.927 41.810 C 48.200 41.900,49.533 40.959,49.309 38.717 C 49.059 36.218,46.306 35.879,45.945 38.303 C 45.788 39.360,47.374 39.703,47.778 38.699 C 47.919 38.351,48.014 38.415,48.036 38.872 C 48.088 39.959,46.917 40.191,45.828 39.309 C 45.014 38.649,44.945 38.383,45.378 37.572 C 46.149 36.132,47.948 35.845,49.083 36.979 L 50.015 37.912 51.034 36.954 C 52.498 35.578,54.465 36.268,54.465 38.158 C 54.465 39.262,54.273 39.493,53.252 39.610 C 52.314 39.718,52.048 39.569,52.075 38.949 C 52.095 38.486,52.203 38.380,52.332 38.699 C 52.737 39.703,54.322 39.360,54.165 38.303 C 53.806 35.888,51.051 36.216,50.802 38.703 C 50.583 40.884,52.039 41.897,55.264 41.808 C 59.814 41.682,62.271 45.733,58.765 47.579 C 57.445 48.275,55.162 47.128,55.134 45.755 C 55.119 45.037,55.920 45.477,56.137 46.307 C 56.452 47.513,58.880 47.533,59.521 46.335 C 60.557 44.400,58.685 42.337,55.894 42.337 C 52.086 42.337,50.615 48.432,53.574 51.949 C 55.100 53.762,56.883 54.009,60.249 52.872 C 62.262 52.192,63.547 52.013,64.920 52.220 C 68.028 52.690,68.389 53.322,65.394 53.050 C 59.439 52.510,56.450 54.531,56.450 59.095 C 56.450 66.217,67.766 69.245,68.273 62.260 C 68.508 59.025,63.923 56.209,61.830 58.302 C 61.069 59.063,61.162 60.860,61.963 60.860 C 62.326 60.860,62.624 61.058,62.624 61.301 C 62.624 61.899,62.033 61.857,61.389 61.213 C 58.740 58.564,63.729 56.052,66.874 58.450 C 72.300 62.589,67.512 67.703,59.897 65.900 C 58.809 65.642,58.675 65.764,58.231 67.411 C 57.966 68.396,57.578 69.308,57.370 69.436 C 57.161 69.565,57.283 68.671,57.641 67.450 C 58.618 64.117,57.241 62.296,56.003 65.284 C 55.698 66.020,55.368 66.540,55.269 66.441 C 55.170 66.342,55.429 65.549,55.844 64.678 C 56.478 63.348,56.517 62.822,56.083 61.375 C 55.374 59.010,55.430 58.230,56.450 56.229 C 57.515 54.140,57.509 54.245,56.560 54.243 C 52.937 54.235,50.050 47.633,52.221 44.320 C 53.175 42.864,53.139 42.731,51.400 41.344 L 49.878 40.129 48.774 41.233 C 48.166 41.841,47.462 42.337,47.208 42.337 C 46.954 42.337,47.143 43.079,47.629 43.985 C 49.525 47.522,48.042 52.583,44.763 53.765 C 43.793 54.115,42.951 54.431,42.892 54.467 C 42.833 54.503,43.198 55.389,43.704 56.436 C 44.307 57.683,44.534 58.775,44.363 59.600 C 44.219 60.293,43.984 61.429,43.839 62.125 C 43.677 62.909,43.857 63.930,44.313 64.812 C 44.718 65.594,44.961 66.321,44.855 66.428 C 44.748 66.534,44.412 66.020,44.107 65.284 C 43.750 64.422,43.238 63.947,42.667 63.947 C 41.728 63.947,41.733 63.779,42.543 68.578 C 42.666 69.305,42.434 68.908,42.026 67.696 C 41.619 66.483,41.255 65.438,41.217 65.375 C 41.180 65.311,40.431 65.559,39.553 65.926 C 33.183 68.587,28.136 62.659,33.167 58.425 C 36.128 55.934,41.369 58.565,38.721 61.213 C 38.077 61.857,37.486 61.899,37.486 61.301 C 37.486 61.058,37.784 60.860,38.148 60.860 C 38.544 60.860,38.809 60.453,38.809 59.846 C 38.809 56.414,32.968 57.398,31.769 61.032 C 30.122 66.022,37.873 68.014,41.966 63.652 C 46.246 59.090,43.067 52.922,36.436 52.922 C 31.105 52.922,29.705 53.981,24.483 61.963 C 18.409 71.247,18.634 70.790,19.609 71.867 C 21.158 73.579,22.138 73.045,23.728 69.626 C 24.529 67.903,25.287 66.595,25.411 66.719 C 25.535 66.843,25.028 68.150,24.285 69.623 C 22.660 72.842,22.666 72.767,24.003 72.767 C 24.868 72.767,25.295 72.301,26.221 70.342 C 27.609 67.408,28.098 67.111,26.886 69.937 C 25.749 72.591,25.779 72.767,27.374 72.767 L 28.727 72.767 24.507 78.920 C 20.255 85.118,19.615 86.386,21.058 85.755 C 23.209 84.814,27.874 83.841,30.337 83.818 C 36.898 83.758,41.636 77.341,37.789 73.726 C 35.750 71.812,32.868 72.776,33.154 75.277 C 33.342 76.908,34.909 77.196,35.900 75.781 C 36.296 75.216,36.604 75.039,36.604 75.377 C 36.604 75.707,36.257 76.241,35.832 76.564 C 33.849 78.070,31.452 75.950,32.805 73.885 C 35.665 69.521,41.149 74.158,39.055 79.170 C 38.094 81.469,38.179 81.927,39.743 82.878 C 42.746 84.704,47.025 84.369,47.999 82.231 C 49.627 78.657,47.383 74.513,45.072 76.825 C 44.075 77.822,44.421 79.068,45.632 78.836 C 46.231 78.722,46.616 78.798,46.488 79.005 C 45.952 79.872,43.660 79.048,43.660 77.989 C 43.660 77.307,45.621 75.854,46.542 75.854 C 48.773 75.854,49.868 80.221,48.255 82.683 C 46.754 84.974,42.052 85.198,39.226 83.113 C 37.556 81.881,36.921 81.776,36.223 82.618 C 35.955 82.941,34.938 83.469,33.964 83.791 C 32.022 84.432,31.736 84.911,33.049 85.328 C 34.301 85.725,36.603 88.519,36.611 89.652 C 36.625 91.720,37.270 91.944,39.092 90.515 C 43.532 87.035,48.071 88.378,48.071 93.172 C 48.071 96.531,44.159 98.426,42.488 95.876 C 41.454 94.297,43.289 91.624,44.545 92.880 C 44.874 93.210,44.715 93.337,44.006 93.311 C 42.186 93.245,42.559 96.319,44.392 96.497 C 47.438 96.792,48.859 92.479,46.494 90.114 C 43.824 87.444,39.241 89.549,36.131 94.873 C 33.124 100.021,27.916 101.228,26.081 97.202 C 24.434 93.586,28.661 89.213,31.558 91.535 C 32.385 92.197,32.382 92.205,31.451 91.755 C 27.935 90.057,24.496 94.526,26.934 97.625 C 29.987 101.506,36.163 97.304,36.163 91.346 C 36.163 83.489,21.931 82.122,17.043 89.509 C 15.328 92.099,15.104 91.997,20.507 91.084 C 21.235 90.961,20.838 91.177,19.625 91.564 C 15.010 93.038,14.397 93.302,14.199 93.898 C 14.038 94.380,14.338 94.450,15.597 94.224 C 19.240 93.570,20.319 93.564,17.641 94.213 C 13.233 95.281,13.063 95.398,10.418 99.151 C 7.146 103.795,7.219 104.965,10.783 104.958 C 12.481 104.954,12.653 104.823,14.271 102.311 C 15.208 100.858,16.063 99.669,16.172 99.669 C 16.414 99.669,16.087 100.240,14.478 102.615 C 12.937 104.892,12.937 104.961,14.489 104.961 C 15.689 104.961,19.846 99.832,19.846 98.351 C 19.846 98.106,20.056 97.905,20.313 97.905 C 20.825 97.905,20.840 97.875,18.435 101.612 C 16.483 104.645,16.418 104.963,17.751 104.957 C 18.491 104.953,19.245 104.178,20.721 101.900 C 21.809 100.221,22.770 98.918,22.856 99.004 C 22.941 99.090,22.200 100.355,21.208 101.816 C 20.216 103.277,19.405 104.582,19.405 104.717 C 19.405 104.851,21.767 104.961,24.654 104.961 L 29.903 104.961 30.364 103.638 C 30.618 102.911,30.930 102.315,31.058 102.315 C 31.186 102.315,31.097 102.824,30.860 103.447 C 30.624 104.069,30.430 104.664,30.430 104.770 C 30.430 104.875,31.518 104.961,32.847 104.961 L 35.264 104.961 36.355 102.867 C 36.954 101.714,37.447 100.970,37.450 101.213 C 37.453 101.455,37.171 102.150,36.825 102.756 C 35.915 104.348,36.021 104.961,37.206 104.961 C 38.200 104.961,39.691 102.372,39.691 100.647 C 39.691 100.352,39.887 100.110,40.126 100.110 C 40.365 100.110,40.166 101.110,39.685 102.332 C 39.203 103.553,38.809 104.645,38.809 104.757 C 38.809 104.870,39.774 104.961,40.953 104.961 C 42.922 104.961,43.086 105.043,42.964 105.954 C 42.891 106.499,42.611 109.923,42.341 113.561 C 42.070 117.200,41.667 120.864,41.444 121.705 C 40.931 123.639,41.891 125.374,43.358 125.165 C 44.224 125.042,44.357 124.668,44.662 121.499 C 45.688 110.841,46.202 106.710,46.252 108.722 C 46.282 109.941,46.123 112.521,45.899 114.455 C 45.675 116.389,45.363 119.609,45.207 121.610 L 44.923 125.248 46.215 125.248 C 47.774 125.248,48.060 123.765,48.067 115.656 C 48.069 112.927,48.226 110.695,48.415 110.695 C 48.604 110.695,48.680 113.969,48.584 117.971 L 48.408 125.248 50.039 125.248 L 51.670 125.248 51.436 117.641 C 51.284 112.719,51.338 110.734,51.588 112.018 C 51.801 113.109,51.989 116.533,52.007 119.625 L 52.040 125.248 53.583 125.248 C 55.401 125.248,55.341 125.748,54.461 117.971 C 54.104 114.818,53.836 110.948,53.865 109.372 L 53.916 106.505 54.267 109.372 C 54.460 110.948,54.864 115.165,55.165 118.743 C 55.691 124.999,55.749 125.248,56.688 125.248 C 58.558 125.248,58.772 124.390,58.248 118.983 C 57.982 116.244,57.661 112.712,57.535 111.136 C 57.408 109.559,57.194 107.525,57.059 106.615 L 56.813 104.961 59.057 104.961 C 60.291 104.961,61.301 104.879,61.301 104.777 C 61.301 104.676,60.904 103.668,60.419 102.536 C 59.934 101.404,59.547 100.247,59.558 99.963 C 59.570 99.680,60.087 100.689,60.708 102.205 C 61.648 104.505,62.010 104.961,62.891 104.961 C 64.128 104.961,64.198 104.522,63.253 102.693 C 62.871 101.955,62.649 101.261,62.760 101.151 C 62.870 101.040,63.331 101.852,63.784 102.954 L 64.609 104.958 67.144 104.960 C 69.867 104.962,69.926 104.922,69.204 103.572 C 68.941 103.082,68.841 102.566,68.981 102.427 C 69.121 102.287,69.454 102.800,69.721 103.567 L 70.208 104.961 75.236 104.961 C 80.961 104.961,80.896 105.025,78.696 101.584 C 77.833 100.236,77.191 99.068,77.269 98.990 C 77.347 98.912,78.301 100.221,79.389 101.900 C 81.920 105.806,84.471 106.635,82.441 102.892 C 81.752 101.623,81.726 101.476,82.331 102.291 C 84.221 104.838,84.482 105.039,85.719 104.890 L 86.958 104.741 84.690 101.273 C 83.443 99.366,82.501 97.727,82.598 97.630 C 82.694 97.534,83.846 99.149,85.157 101.221 L 87.541 104.987 89.526 104.864 C 92.525 104.678,92.495 103.136,89.407 98.787 L 87.058 95.480 83.330 94.481 C 79.943 93.574,80.359 93.476,84.463 94.216 C 85.764 94.450,85.972 94.382,85.747 93.796 C 85.482 93.104,84.677 92.780,80.583 91.716 C 79.424 91.415,78.556 91.087,78.655 90.989 C 78.753 90.890,79.731 91.035,80.827 91.311 C 84.229 92.168,84.552 91.827,82.670 89.366 C 77.811 83.011,65.658 83.170,63.924 89.611 C 62.365 95.402,69.343 101.946,72.885 98.015 C 75.472 95.145,72.394 90.113,68.999 91.660 C 67.832 92.191,67.467 94.143,68.467 94.500 C 68.771 94.609,68.854 94.873,68.652 95.088 C 68.108 95.666,67.089 94.040,67.356 93.020 C 68.375 89.123,74.531 91.398,74.531 95.671 C 74.531 100.551,66.582 100.506,64.261 95.614 C 60.763 88.243,52.481 86.430,52.481 93.034 C 52.481 95.983,55.260 97.709,57.080 95.889 C 58.221 94.748,57.247 92.654,55.829 93.198 C 55.386 93.368,55.191 93.307,55.350 93.049 C 56.277 91.549,58.605 93.830,57.846 95.494 C 56.379 98.716,51.919 96.861,51.919 93.029 C 51.919 88.356,56.522 87.052,60.944 90.472 C 62.837 91.936,63.065 91.991,63.065 90.988 C 63.065 89.563,64.820 86.634,66.143 85.853 C 67.952 84.784,67.867 84.610,64.851 83.177 L 62.226 81.931 61.074 82.837 C 58.608 84.776,53.810 85.174,52.463 83.551 C 51.821 82.777,52.524 82.689,53.282 83.448 C 54.130 84.295,58.361 84.047,60.052 83.050 C 61.677 82.093,61.849 81.099,60.819 78.611 C 58.985 74.180,64.422 70.062,67.198 73.780 C 68.769 75.884,66.050 78.336,64.199 76.484 C 63.818 76.103,63.506 75.563,63.506 75.284 C 63.506 75.005,63.823 75.229,64.210 75.781 C 65.201 77.196,66.769 76.908,66.956 75.277 C 67.399 71.411,61.797 72.101,61.065 76.002 C 60.234 80.434,63.625 83.288,70.342 83.810 C 72.525 83.980,75.495 84.541,76.942 85.058 C 78.389 85.575,79.629 85.998,79.698 85.998 C 80.320 85.998,79.221 84.085,76.024 79.603 C 70.993 72.551,71.095 72.767,72.803 72.767 C 74.337 72.767,74.347 72.616,73.030 69.570 C 71.909 66.980,72.574 67.634,73.813 70.342 C 74.737 72.359,75.113 72.767,76.051 72.767 C 77.450 72.767,77.457 72.854,75.826 69.623 C 75.082 68.150,74.549 66.869,74.642 66.777 C 74.734 66.685,75.480 67.995,76.299 69.688 C 78.099 73.409,80.706 74.033,80.706 70.743 C 80.706 69.202,71.029 55.023,69.473 54.285 C 68.416 53.783,68.308 53.612,68.911 53.401 C 69.555 53.175,69.410 52.747,67.857 50.290 C 66.812 48.637,66.261 47.373,66.545 47.278 C 67.268 47.037,67.145 46.378,66.104 44.916 C 65.592 44.197,65.271 43.513,65.389 43.394 C 65.508 43.276,66.174 44.081,66.871 45.183 C 67.585 46.314,68.473 47.187,68.908 47.188 C 69.987 47.189,69.894 46.832,68.137 44.223 C 67.288 42.963,66.593 41.777,66.593 41.588 C 66.593 41.399,67.490 42.582,68.587 44.216 C 70.587 47.197,71.254 47.644,72.238 46.659 C 73.287 45.610,72.706 44.032,68.947 37.724 C 64.708 30.611,64.790 30.691,64.006 32.860 C 62.592 36.770,56.564 36.451,54.862 32.377 C 53.456 29.010,56.468 25.913,58.505 28.632 C 59.157 29.504,58.474 30.891,57.427 30.820 C 56.756 30.774,56.760 30.745,57.468 30.562 C 58.889 30.194,58.230 28.445,56.670 28.445 C 54.310 28.445,54.714 33.116,57.188 34.440 C 60.421 36.170,63.951 34.350,63.944 30.957 C 63.938 28.035,57.927 18.781,55.925 18.610 C 52.662 18.331,49.910 22.880,52.503 24.267 C 54.075 25.109,55.788 24.643,55.788 23.374 C 55.788 22.493,55.588 22.292,54.796 22.376 C 54.250 22.434,53.804 22.285,53.804 22.046 C 53.804 21.361,55.431 21.536,56.198 22.303 C 58.302 24.407,54.222 26.369,51.929 24.356 C 49.713 22.410,52.208 18.082,55.546 18.082 C 56.701 18.082,56.684 17.564,55.458 15.416 C 54.281 13.356,54.142 13.323,52.954 14.833 C 51.928 16.138,51.705 15.695,52.715 14.359 C 53.461 13.372,53.577 11.907,52.908 11.907 C 52.658 11.907,52.339 12.205,52.199 12.569 C 52.060 12.933,51.764 13.230,51.541 13.230 C 51.319 13.230,51.460 12.738,51.854 12.136 C 53.427 9.736,50.291 6.879,48.535 9.112 M248.577 9.003 C 247.732 10.292,247.668 11.148,248.315 12.488 C 248.738 13.362,248.723 13.380,248.157 12.679 C 247.813 12.255,247.306 11.907,247.030 11.907 C 246.250 11.907,246.454 13.333,247.409 14.553 C 247.883 15.160,248.273 15.854,248.274 16.097 C 248.275 16.340,247.863 15.893,247.358 15.105 C 246.170 13.249,245.952 13.290,244.584 15.624 C 243.167 18.044,243.168 18.081,244.653 18.084 C 245.320 18.085,246.461 18.587,247.189 19.200 L 248.512 20.314 246.968 19.420 C 243.618 17.479,243.141 17.789,239.070 24.567 C 234.816 31.652,235.164 35.121,240.119 35.018 C 244.651 34.923,247.531 28.813,243.283 28.306 C 241.758 28.124,241.178 29.407,242.376 30.313 C 243.201 30.936,243.200 30.947,242.337 30.796 C 241.084 30.577,240.964 28.905,242.142 28.080 C 244.782 26.231,246.874 30.512,244.689 33.291 C 242.021 36.683,236.699 36.151,235.757 32.398 C 235.354 30.789,235.116 31.068,230.915 38.087 C 226.956 44.700,226.534 45.961,228.014 46.752 C 229.179 47.376,229.445 47.175,231.551 44.074 C 232.529 42.634,233.429 41.455,233.550 41.455 C 233.671 41.455,232.969 42.635,231.990 44.077 C 229.952 47.079,229.918 47.189,231.033 47.189 C 231.505 47.189,232.354 46.436,233.024 45.424 C 234.437 43.289,235.066 43.055,233.774 45.146 C 232.679 46.917,232.645 47.189,233.524 47.189 C 234.043 47.189,233.946 47.557,233.088 48.842 C 229.997 53.476,230.023 53.618,233.780 52.635 C 236.523 51.917,236.693 51.923,239.691 52.848 C 245.233 54.559,247.845 52.802,247.848 47.363 C 247.850 45.116,247.672 44.479,246.769 43.504 C 244.494 41.050,240.137 42.521,240.443 45.639 C 240.600 47.236,244.167 47.789,244.040 46.196 C 244.006 45.772,244.155 45.424,244.371 45.424 C 245.192 45.424,244.715 46.759,243.642 47.461 C 242.271 48.360,240.604 47.781,239.859 46.147 C 238.840 43.910,242.153 41.230,245.306 41.742 C 247.188 42.047,248.631 41.338,249.206 39.825 C 250.105 37.461,247.228 35.498,245.920 37.584 C 245.184 38.759,246.242 39.640,247.468 38.875 C 248.227 38.401,248.353 38.403,248.192 38.886 C 247.885 39.808,245.466 39.625,245.282 38.666 C 244.892 36.644,247.623 35.483,249.083 37.050 L 249.909 37.937 250.712 37.050 C 251.797 35.852,253.405 35.922,254.245 37.204 C 255.106 38.518,254.680 39.691,253.342 39.691 C 252.259 39.691,251.503 38.961,252.056 38.449 C 252.235 38.283,252.470 38.396,252.578 38.699 C 252.812 39.354,253.861 39.430,254.239 38.818 C 254.793 37.923,253.566 36.546,252.341 36.688 C 251.293 36.809,251.142 37.036,251.023 38.673 C 250.854 41.007,252.237 42.159,254.725 41.755 C 258.870 41.082,262.158 45.443,259.045 47.483 C 258.011 48.160,257.771 48.171,256.733 47.588 C 255.562 46.931,254.882 45.424,255.756 45.424 C 256.016 45.424,256.229 45.821,256.229 46.307 C 256.229 47.440,259.064 47.600,259.490 46.491 C 260.750 43.206,255.992 40.770,253.393 43.369 C 252.078 44.685,251.578 47.532,252.279 49.715 C 253.466 53.413,255.749 54.294,260.327 52.819 C 263.283 51.867,263.393 51.863,266.247 52.611 C 269.921 53.575,269.962 53.511,267.765 50.175 C 266.387 48.084,266.103 47.374,266.599 47.266 C 267.455 47.080,267.431 46.911,266.325 45.357 C 265.813 44.638,265.486 43.959,265.598 43.847 C 265.711 43.734,266.331 44.440,266.976 45.416 C 268.122 47.147,269.460 47.782,269.460 46.593 C 269.460 46.266,268.903 45.224,268.223 44.278 C 266.456 41.822,266.141 41.260,266.735 41.627 C 267.009 41.797,267.952 43.018,268.831 44.342 C 270.738 47.215,270.946 47.368,272.097 46.752 C 273.558 45.970,273.162 44.743,269.482 38.656 C 264.501 30.417,264.840 30.786,264.030 32.725 C 262.564 36.233,258.620 36.741,255.899 33.771 C 253.646 31.313,254.078 27.784,256.632 27.784 C 258.223 27.784,259.231 28.886,258.582 29.916 C 258.065 30.736,256.670 31.171,256.670 30.511 C 256.670 30.278,257.018 30.115,257.442 30.148 C 257.940 30.188,258.214 29.897,258.214 29.327 C 258.214 27.823,255.464 27.826,255.087 29.330 C 254.324 32.369,256.649 35.061,260.035 35.061 C 264.625 35.061,264.988 31.250,261.033 24.597 C 257.147 18.062,256.169 17.386,253.307 19.261 C 250.041 21.401,251.462 25.436,255.155 24.509 C 256.656 24.132,256.538 22.253,255.017 22.306 C 254.471 22.326,254.024 22.177,254.024 21.975 C 254.024 21.421,255.540 21.538,256.141 22.139 C 257.802 23.800,255.281 25.939,252.862 24.922 C 249.530 23.521,251.553 18.082,255.407 18.082 C 256.948 18.082,256.954 17.981,255.549 15.585 C 254.206 13.293,253.942 13.247,252.752 15.105 C 252.247 15.893,251.831 16.317,251.827 16.046 C 251.823 15.776,252.216 15.050,252.701 14.433 C 253.186 13.816,253.583 13.107,253.583 12.856 C 253.583 11.966,252.633 11.831,252.024 12.635 C 251.481 13.351,251.469 13.274,251.931 12.012 C 252.958 9.207,250.114 6.657,248.577 9.003 M248.739 23.580 C 248.423 24.171,247.622 24.844,246.960 25.075 C 244.724 25.854,242.563 23.860,243.899 22.250 C 244.465 21.567,246.086 21.364,246.086 21.975 C 246.086 22.177,245.646 22.326,245.107 22.306 C 243.976 22.266,243.455 23.715,244.389 24.306 C 246.380 25.568,249.113 23.737,248.546 21.521 L 248.286 20.507 248.800 21.507 C 249.199 22.283,249.186 22.747,248.739 23.580 M131.979 26.150 L 130.111 27.134 138.523 41.801 L 146.934 56.467 141.383 66.103 C 134.946 77.278,135.209 76.360,138.091 77.599 C 140.622 78.688,140.520 78.741,142.354 75.413 C 144.899 70.794,149.507 62.886,149.856 62.536 C 150.049 62.343,152.250 65.757,154.748 70.122 C 160.059 79.405,159.463 78.832,162.306 77.392 L 164.556 76.251 163.410 74.295 C 162.779 73.218,160.224 68.813,157.733 64.504 L 153.203 56.670 154.925 53.583 C 155.872 51.885,159.604 45.295,163.219 38.939 C 166.833 32.582,169.791 27.283,169.791 27.162 C 169.791 26.919,165.905 25.138,165.375 25.138 C 165.191 25.138,162.204 30.050,158.738 36.053 C 150.153 50.921,150.180 50.879,149.657 50.189 C 149.417 49.873,148.014 47.530,146.538 44.983 C 133.732 22.884,135.019 24.549,131.979 26.150 M332.887 25.760 C 332.237 26.099,331.620 26.291,331.516 26.187 C 330.535 25.206,330.363 27.553,331.296 29.205 C 331.882 30.243,335.573 36.685,339.499 43.522 C 343.425 50.359,346.637 56.198,346.637 56.498 C 346.637 56.797,344.619 60.531,342.152 64.794 C 339.685 69.058,337.193 73.381,336.613 74.400 L 335.560 76.254 337.807 77.393 C 340.640 78.828,340.014 79.431,345.345 70.131 C 347.851 65.760,350.043 62.332,350.217 62.514 C 350.391 62.696,352.464 66.218,354.824 70.342 C 357.183 74.465,359.255 77.999,359.428 78.195 C 359.792 78.608,364.278 76.757,364.278 76.194 C 364.278 75.987,361.790 71.494,358.750 66.212 L 353.222 56.606 356.047 51.567 C 357.601 48.795,361.365 42.161,364.411 36.825 L 369.949 27.122 368.106 26.150 C 365.277 24.658,365.203 24.713,361.632 30.963 C 356.986 39.095,351.517 48.538,350.729 49.786 L 350.065 50.839 348.867 48.904 C 348.209 47.839,344.833 42.056,341.366 36.053 C 337.899 30.050,334.839 25.139,334.565 25.141 C 334.292 25.142,333.537 25.421,332.887 25.760 M248.335 41.450 L 246.836 42.732 247.637 43.954 C 249.740 47.163,248.042 52.598,244.542 53.864 C 242.785 54.499,242.760 54.568,243.658 56.289 C 244.434 57.778,244.506 59.759,243.852 61.636 C 243.463 62.751,243.541 63.299,244.302 64.789 C 244.808 65.781,245.124 66.593,245.004 66.593 C 244.884 66.593,244.478 65.998,244.101 65.270 C 242.460 62.095,241.661 64.423,242.739 69.239 C 242.875 69.846,242.636 69.310,242.207 68.049 C 241.214 65.128,241.140 65.068,239.534 65.899 C 234.769 68.363,229.328 64.202,231.813 59.996 C 233.833 56.576,239.471 56.552,239.471 59.962 C 239.471 60.814,237.867 62.049,237.385 61.568 C 237.250 61.432,237.466 61.197,237.864 61.044 C 238.709 60.720,238.826 59.069,238.060 58.302 C 236.226 56.469,231.533 59.243,231.533 62.159 C 231.533 68.060,242.555 66.688,243.688 60.646 C 244.649 55.525,241.003 52.413,234.794 53.053 C 230.504 53.496,229.311 54.543,224.198 62.353 C 219.145 70.072,218.619 71.264,219.865 72.174 C 221.531 73.393,222.256 72.916,223.826 69.570 C 224.652 67.811,225.334 66.627,225.342 66.939 C 225.351 67.250,224.862 68.484,224.256 69.680 C 222.899 72.359,222.885 72.767,224.154 72.767 C 224.945 72.767,225.373 72.261,226.204 70.334 C 226.782 68.996,227.329 67.976,227.420 68.067 C 227.511 68.158,227.184 69.170,226.692 70.316 C 225.577 72.918,225.551 72.767,227.122 72.767 C 228.836 72.767,228.863 72.674,225.934 76.879 C 218.818 87.099,219.058 86.440,222.946 85.074 C 224.375 84.571,227.473 84.012,229.840 83.828 C 236.324 83.326,239.494 80.656,238.896 76.200 C 238.328 71.958,232.856 71.196,232.856 75.358 C 232.856 77.190,235.898 77.128,235.994 75.295 C 236.034 74.516,236.088 74.476,236.251 75.104 C 236.683 76.768,234.216 77.920,232.944 76.648 C 232.126 75.831,232.317 73.874,233.302 72.983 C 236.681 69.925,241.234 75.582,238.809 79.824 C 237.918 81.383,237.996 81.909,239.240 82.724 C 242.212 84.672,246.577 84.456,247.894 82.296 C 249.665 79.391,248.308 75.654,245.801 76.535 C 244.018 77.163,244.037 78.758,245.826 78.628 C 246.718 78.564,246.969 78.676,246.649 78.996 C 245.869 79.776,244.116 79.263,243.966 78.212 C 243.819 77.178,245.301 75.854,246.608 75.854 C 249.167 75.854,250.026 80.815,247.865 83.115 C 246.012 85.087,241.517 84.962,238.849 82.863 L 237.671 81.936 235.048 83.195 C 232.227 84.550,231.934 84.904,233.277 85.330 C 234.654 85.767,236.360 88.122,236.661 90.001 C 236.991 92.067,236.943 92.057,238.966 90.470 C 244.283 86.299,251.278 90.461,247.348 95.457 C 245.069 98.354,240.521 96.580,242.428 93.537 C 242.921 92.750,244.763 92.312,244.763 92.982 C 244.763 93.219,244.375 93.311,243.901 93.187 C 242.821 92.905,242.163 94.913,243.004 95.926 C 244.446 97.665,247.850 95.745,247.850 93.193 C 247.850 86.734,239.524 88.071,236.010 95.093 C 234.365 98.379,230.648 100.479,228.592 99.284 C 227.943 98.907,228.228 98.811,230.040 98.801 C 237.505 98.756,238.698 87.057,231.439 85.086 C 226.696 83.799,219.553 85.968,217.217 89.405 C 215.540 91.873,216.230 92.407,219.582 91.239 C 220.358 90.968,221.102 90.856,221.236 90.989 C 221.369 91.123,220.615 91.457,219.559 91.732 C 218.504 92.007,216.896 92.424,215.987 92.660 C 213.804 93.225,213.598 94.646,215.766 94.178 C 218.969 93.485,220.684 93.506,217.861 94.203 C 213.311 95.326,212.918 95.585,210.474 99.072 C 207.368 103.505,207.468 104.961,210.877 104.961 C 212.470 104.961,212.630 104.818,214.801 101.433 C 216.046 99.493,217.156 97.905,217.268 97.905 C 217.502 97.905,217.401 98.080,215.127 101.612 C 213.126 104.721,213.093 104.961,214.667 104.961 C 215.709 104.961,216.195 104.460,218.069 101.454 C 219.271 99.525,220.321 98.013,220.403 98.095 C 220.484 98.176,219.749 99.506,218.769 101.051 C 216.771 104.200,216.590 104.961,217.840 104.961 C 218.421 104.961,219.348 103.960,220.697 101.874 C 221.796 100.176,222.793 98.787,222.914 98.787 C 223.035 98.787,222.345 100.009,221.380 101.502 C 219.051 105.104,218.914 104.961,224.696 104.961 L 229.766 104.961 230.423 103.528 L 231.080 102.095 230.830 103.528 L 230.580 104.961 232.974 104.961 C 235.345 104.961,235.375 104.944,236.173 103.176 C 236.616 102.194,237.156 101.280,237.375 101.145 C 237.593 101.010,237.360 101.707,236.857 102.693 C 235.696 104.970,235.705 105.048,237.115 104.880 C 238.099 104.763,238.448 104.317,239.297 102.095 C 239.853 100.639,240.318 99.772,240.330 100.167 C 240.343 100.562,240.055 101.597,239.691 102.468 C 238.728 104.774,238.827 104.961,241.014 104.961 C 242.875 104.961,242.999 105.036,242.999 106.148 C 242.999 108.100,242.142 117.294,241.636 120.764 C 241.208 123.703,241.239 124.053,241.972 124.609 C 244.180 126.282,244.732 124.417,245.436 112.900 C 245.711 108.419,245.999 106.491,246.342 106.835 C 246.569 107.062,245.346 122.577,244.969 124.256 C 244.771 125.139,244.917 125.248,246.298 125.248 L 247.850 125.248 247.902 120.507 C 247.930 117.900,248.115 114.476,248.312 112.900 C 248.552 110.982,248.606 112.551,248.476 117.641 L 248.280 125.248 249.829 125.248 L 251.378 125.248 251.454 117.641 L 251.529 110.033 251.843 115.987 C 252.015 119.261,252.179 122.685,252.208 123.594 C 252.256 125.126,252.358 125.248,253.583 125.248 C 255.124 125.248,255.237 124.353,254.502 117.960 C 253.822 112.035,253.554 106.655,253.951 106.901 C 254.159 107.029,254.469 109.473,254.639 112.332 C 255.399 125.075,255.493 125.529,257.263 125.084 C 258.785 124.702,258.860 124.212,258.217 118.817 C 257.902 116.169,257.508 111.968,257.342 109.482 L 257.041 104.961 259.061 104.961 C 261.361 104.961,261.393 104.883,260.214 102.131 C 259.738 101.020,259.490 100.112,259.663 100.115 C 259.836 100.118,260.375 101.160,260.860 102.430 C 261.519 104.156,261.993 104.777,262.734 104.882 C 263.745 105.025,264.220 103.554,263.339 103.010 C 263.126 102.878,262.846 102.370,262.718 101.881 C 262.350 100.471,263.056 101.222,263.937 103.176 C 264.735 104.944,264.765 104.961,267.136 104.961 L 269.530 104.961 269.280 103.528 L 269.030 102.095 269.687 103.528 L 270.344 104.961 275.415 104.961 C 280.959 104.961,280.945 104.969,279.453 102.748 C 277.442 99.754,276.858 98.787,277.062 98.787 C 277.176 98.787,278.192 100.176,279.321 101.874 C 280.949 104.321,281.602 104.961,282.473 104.961 C 283.893 104.961,283.888 104.937,281.798 101.859 C 280.822 100.422,279.901 98.895,279.752 98.465 C 279.603 98.036,280.551 99.321,281.858 101.321 C 283.880 104.416,284.414 104.958,285.447 104.960 C 286.924 104.962,286.945 104.710,285.628 102.748 C 283.616 99.754,283.032 98.787,283.236 98.787 C 283.350 98.787,284.367 100.176,285.496 101.874 C 287.436 104.793,287.640 104.961,289.221 104.961 C 292.674 104.961,292.730 103.667,289.484 98.932 L 287.014 95.328 283.639 94.604 C 278.492 93.499,279.042 93.219,284.400 94.216 C 285.549 94.430,285.844 94.355,285.688 93.889 C 285.485 93.281,284.328 92.780,280.265 91.541 C 279.052 91.171,278.655 90.970,279.383 91.093 C 280.110 91.217,281.579 91.440,282.646 91.589 L 284.586 91.861 283.194 89.837 C 278.581 83.133,265.179 83.026,263.930 89.683 C 262.758 95.932,269.154 101.739,272.988 97.905 C 275.177 95.716,273.001 91.020,269.963 91.377 C 268.220 91.582,267.191 93.666,268.363 94.619 C 269.146 95.256,269.154 95.304,268.431 95.075 C 267.987 94.934,267.541 94.818,267.439 94.818 C 266.825 94.818,267.415 92.498,268.220 91.748 C 269.575 90.486,270.941 90.627,272.752 92.218 C 276.545 95.548,273.201 100.827,268.320 99.216 C 266.856 98.733,263.727 95.587,263.727 94.598 C 263.727 91.281,256.436 87.863,253.571 89.836 C 252.594 90.508,252.542 90.510,253.067 89.858 C 254.778 87.734,258.476 88.134,261.194 90.737 C 262.582 92.067,262.910 91.867,263.660 89.228 C 264.140 87.540,265.909 85.511,267.349 84.998 C 268.051 84.747,268.029 84.731,264.995 83.217 L 262.516 81.979 260.910 83.069 C 255.377 86.823,248.624 82.604,251.481 77.178 C 252.563 75.123,256.462 75.976,256.146 78.198 C 256.000 79.225,254.258 79.792,253.519 79.053 C 253.274 78.809,253.642 78.727,254.451 78.845 C 256.086 79.085,256.388 77.529,254.865 76.715 C 251.747 75.046,249.908 80.603,252.732 83.159 C 254.398 84.667,260.602 83.874,261.757 82.005 C 261.917 81.746,261.621 80.541,261.099 79.327 C 259.402 75.383,262.282 71.023,265.720 72.330 C 268.237 73.287,268.174 77.400,265.647 77.096 C 264.561 76.966,262.659 74.972,263.621 74.972 C 263.865 74.972,264.169 75.369,264.295 75.854 C 264.712 77.448,267.255 76.674,267.255 74.953 C 267.255 72.730,263.511 72.002,261.995 73.929 C 258.787 78.007,263.254 83.778,269.639 83.804 C 272.714 83.816,275.560 84.366,277.954 85.412 C 280.623 86.577,280.393 85.935,275.764 79.291 L 271.373 72.988 272.842 72.851 C 273.650 72.776,274.311 72.652,274.311 72.576 C 274.311 72.500,273.897 71.504,273.392 70.361 C 272.887 69.219,272.553 68.204,272.652 68.105 C 272.750 68.007,273.281 69.016,273.833 70.347 C 274.655 72.331,275.027 72.767,275.897 72.767 C 277.228 72.767,277.223 72.380,275.854 69.680 C 275.248 68.484,274.762 67.349,274.774 67.159 C 274.786 66.969,275.483 68.153,276.323 69.791 C 277.866 72.796,278.442 73.184,280.073 72.311 C 281.551 71.520,281.051 70.318,276.081 62.711 C 270.540 54.232,269.584 53.413,264.783 53.027 C 259.489 52.602,256.229 54.943,256.229 59.168 C 256.229 63.973,261.619 67.413,266.169 65.512 C 270.285 63.792,268.350 57.773,263.682 57.773 C 261.357 57.773,260.384 59.660,262.049 60.941 C 262.608 61.371,262.831 61.727,262.545 61.732 C 261.873 61.745,260.639 60.510,260.639 59.824 C 260.639 55.780,267.813 56.999,268.874 61.224 C 269.870 65.195,266.012 67.222,259.930 65.922 C 258.597 65.637,258.546 65.686,258.036 67.708 C 257.748 68.852,257.423 69.698,257.314 69.588 C 257.204 69.479,257.420 68.359,257.794 67.099 C 258.760 63.846,257.443 62.497,256.009 65.270 C 255.633 65.998,255.226 66.593,255.107 66.593 C 254.987 66.593,255.308 65.771,255.821 64.765 C 256.575 63.287,256.661 62.734,256.271 61.878 C 255.576 60.352,255.677 57.503,256.482 55.946 C 256.864 55.208,257.112 54.557,257.034 54.500 C 256.955 54.444,256.265 54.148,255.501 53.844 C 251.901 52.413,250.397 47.977,252.268 44.307 C 252.900 43.067,253.004 42.512,252.629 42.387 C 252.338 42.290,251.667 41.743,251.138 41.172 C 249.968 39.910,250.159 39.891,248.335 41.450 M55.556 76.944 C 56.405 77.848,56.484 78.149,56.020 78.708 C 55.413 79.439,53.999 79.614,53.623 79.005 C 53.494 78.798,53.880 78.722,54.479 78.836 C 55.689 79.068,56.036 77.822,55.039 76.825 C 53.257 75.043,51.462 76.739,51.667 80.009 C 51.769 81.622,51.672 82.281,51.378 81.986 C 51.136 81.743,50.937 80.681,50.937 79.627 C 50.937 76.202,53.474 74.728,55.556 76.944 M133.740 79.532 C 133.303 80.492,133.434 80.643,135.647 81.729 L 138.023 82.894 138.666 81.651 L 139.309 80.408 137.126 79.454 C 134.409 78.268,134.315 78.270,133.740 79.532 M162.845 79.497 C 159.963 80.944,160.731 83.092,163.741 82.003 C 166.240 81.100,166.850 80.480,166.282 79.419 C 165.678 78.290,165.226 78.301,162.845 79.497 M333.823 79.430 C 333.243 80.512,333.417 80.702,335.993 81.817 C 337.881 82.633,337.930 82.633,338.529 81.814 C 339.401 80.622,339.355 80.545,337.144 79.470 C 334.680 78.274,334.443 78.271,333.823 79.430 M362.685 79.553 C 361.059 80.389,360.918 80.587,361.319 81.477 C 361.875 82.710,362.494 82.720,364.847 81.533 C 367.200 80.347,367.082 80.506,366.407 79.426 C 365.711 78.310,365.059 78.332,362.685 79.553 M130.540 84.895 C 129.441 86.816,128.907 87.337,127.972 87.400 C 126.226 87.516,123.920 87.576,117.400 87.674 L 111.536 87.762 109.750 91.484 C 107.379 96.424,106.822 96.141,118.913 96.141 L 129.285 96.141 130.496 94.928 C 131.573 93.849,136.714 85.597,136.714 84.946 C 136.714 84.706,132.575 82.470,132.131 82.470 C 132.019 82.470,131.304 83.561,130.540 84.895 M165.254 83.609 L 163.143 84.708 164.372 86.986 C 165.048 88.239,165.758 89.472,165.951 89.726 C 166.143 89.980,167.136 91.477,168.156 93.054 L 170.011 95.921 180.712 96.050 C 193.170 96.201,192.653 96.429,190.494 91.746 C 188.595 87.626,189.131 87.839,180.368 87.729 C 171.270 87.615,171.187 87.592,169.412 84.708 C 167.824 82.127,168.008 82.176,165.254 83.609 M331.250 83.677 C 329.623 87.603,329.701 87.581,317.269 87.704 L 311.495 87.762 309.837 91.295 C 308.925 93.239,308.292 95.124,308.431 95.485 C 308.726 96.255,327.628 96.472,329.584 95.728 C 330.463 95.394,334.305 89.692,336.799 85.022 C 336.970 84.701,334.371 83.253,332.693 82.736 C 331.953 82.507,331.653 82.703,331.250 83.677 M365.491 83.601 C 362.905 84.947,362.830 84.380,366.373 90.277 C 370.113 96.504,369.265 96.185,381.700 96.039 C 393.420 95.902,392.615 96.390,390.073 90.959 L 388.577 87.762 381.609 87.679 C 377.777 87.634,374.146 87.561,373.539 87.518 C 372.933 87.475,372.091 87.413,371.669 87.380 C 371.230 87.346,370.313 86.279,369.532 84.895 C 367.956 82.104,368.211 82.185,365.491 83.601 M231.835 91.808 C 232.396 92.335,232.856 93.105,232.856 93.518 C 232.856 94.358,231.661 95.535,231.238 95.112 C 231.088 94.962,231.291 94.714,231.690 94.561 C 233.261 93.958,231.846 91.290,229.954 91.290 C 227.223 91.290,225.371 94.674,226.689 97.258 C 227.115 98.094,227.286 98.668,227.069 98.534 C 226.852 98.400,226.363 97.686,225.981 96.948 C 224.136 93.380,228.981 89.127,231.835 91.808 M252.397 92.503 C 251.996 95.505,255.391 97.994,257.091 95.945 C 258.032 94.812,257.487 93.273,256.152 93.289 C 255.503 93.298,255.068 93.149,255.186 92.959 C 255.509 92.435,256.867 92.545,257.464 93.142 C 258.821 94.499,257.410 97.023,255.296 97.023 C 253.133 97.023,251.398 94.352,252.000 91.951 C 252.415 90.300,252.647 90.623,252.397 92.503 M32.836 94.049 C 32.529 94.848,31.312 95.452,31.312 94.804 C 31.312 94.569,31.510 94.377,31.753 94.377 C 31.996 94.377,32.194 93.940,32.194 93.407 C 32.194 92.739,32.336 92.579,32.650 92.892 C 32.900 93.143,32.984 93.663,32.836 94.049 M141.125 93.261 C 129.731 95.240,135.317 98.921,149.724 98.927 C 163.517 98.933,169.312 95.962,160.309 93.499 C 157.563 92.748,144.975 92.592,141.125 93.261 M342.567 93.044 C 335.739 93.910,333.204 95.799,336.825 97.323 C 344.866 100.708,368.605 98.593,364.142 94.889 C 362.179 93.260,349.450 92.171,342.567 93.044 M134.957 101.312 C 134.961 103.440,135.117 105.422,135.303 105.716 C 137.845 109.715,163.836 109.213,164.612 105.150 C 165.188 102.138,164.420 97.495,163.450 98.125 C 159.668 100.579,140.987 100.563,136.228 98.102 L 134.950 97.442 134.957 101.312 M335.171 101.815 L 335.171 106.189 336.832 106.853 C 342.563 109.147,361.070 108.763,364.051 106.290 C 364.560 105.867,364.719 104.759,364.719 101.625 L 364.719 97.514 362.845 98.340 C 357.502 100.695,341.143 100.527,336.384 98.068 L 335.171 97.442 335.171 101.815 M81.203 100.331 L 81.636 101.213 80.918 100.331 C 80.523 99.846,80.005 99.052,79.767 98.567 L 79.334 97.685 80.052 98.567 C 80.447 99.052,80.965 99.846,81.203 100.331 M148.426 142.546 C 147.649 143.655,147.520 145.347,148.181 145.755 C 148.423 145.905,148.622 146.237,148.622 146.492 C 148.622 146.747,148.240 146.487,147.773 145.914 C 146.438 144.279,146.068 145.939,147.294 148.059 L 148.257 149.724 147.300 148.512 C 146.054 146.932,145.870 146.969,144.474 149.078 C 143.142 151.092,143.278 151.709,145.055 151.709 C 148.935 151.709,150.298 157.665,146.628 158.586 C 145.378 158.900,143.330 157.788,143.330 156.795 C 143.330 156.058,145.072 154.731,145.607 155.061 C 146.324 155.504,145.964 156.033,145.099 155.807 C 143.861 155.483,143.365 156.937,144.445 157.726 C 147.293 159.809,149.784 155.897,147.295 153.249 C 146.515 152.418,145.814 152.150,144.421 152.150 L 142.579 152.150 139.426 157.267 C 135.887 163.011,135.428 165.069,137.187 167.305 C 138.798 169.353,143.178 168.687,144.465 166.198 C 145.931 163.364,144.050 159.986,142.095 161.940 C 141.257 162.778,141.477 163.616,142.536 163.616 C 143.271 163.616,143.382 163.740,142.996 164.127 C 142.412 164.710,141.125 163.913,141.125 162.969 C 141.125 162.226,142.585 160.970,143.450 160.970 C 144.369 160.970,145.535 162.640,145.535 163.957 C 145.535 169.044,137.860 171.025,136.175 166.373 C 135.371 164.155,134.990 164.510,130.981 171.214 C 126.991 177.888,126.642 178.736,127.473 179.738 C 128.511 180.987,129.533 180.408,131.431 177.495 C 132.463 175.911,133.395 174.703,133.501 174.810 C 133.608 174.917,132.986 176.036,132.118 177.298 C 129.695 180.820,130.691 181.986,133.184 178.545 C 133.913 177.538,134.505 176.893,134.500 177.111 C 134.494 177.330,134.102 178.004,133.627 178.611 C 132.585 179.944,132.545 180.267,133.401 180.453 C 133.901 180.561,133.639 181.255,132.298 183.369 C 130.368 186.415,130.120 187.266,131.312 186.751 C 133.570 185.777,136.339 185.508,138.589 186.046 C 144.229 187.393,145.846 187.099,147.079 184.501 C 148.685 181.116,148.162 177.722,145.794 176.170 C 143.581 174.720,140.243 176.326,140.243 178.841 C 140.243 180.948,143.038 181.640,143.771 179.713 C 144.235 178.493,144.653 178.269,144.653 179.241 C 144.653 181.060,141.832 181.888,140.531 180.450 C 138.397 178.092,140.691 175.345,144.861 175.265 C 146.492 175.234,147.554 175.366,147.238 175.561 C 146.790 175.838,146.878 176.290,147.644 177.653 C 149.841 181.561,147.396 187.431,143.572 187.431 C 142.730 187.431,142.722 188.188,143.550 189.636 C 144.290 190.930,144.394 193.509,143.773 195.142 C 143.428 196.050,143.529 196.678,144.247 198.084 C 144.748 199.067,144.933 199.732,144.658 199.562 C 144.383 199.392,143.976 198.776,143.754 198.193 C 142.733 195.507,141.466 197.573,142.259 200.631 C 143.034 203.621,142.739 204.146,141.910 201.250 C 141.373 199.376,141.169 199.134,140.220 199.255 C 139.626 199.330,138.292 199.499,137.255 199.631 C 132.326 200.256,129.372 196.663,131.898 193.115 C 133.513 190.847,136.489 189.871,138.084 191.085 C 139.732 192.341,139.435 194.970,137.653 194.900 C 137.167 194.881,137.256 194.743,137.927 194.474 C 139.155 193.980,139.196 193.000,138.037 191.841 C 135.820 189.624,131.422 192.429,131.422 196.060 C 131.422 198.915,137.210 200.403,140.277 198.336 C 146.981 193.818,143.482 185.413,135.255 186.273 C 130.594 186.760,129.600 187.623,124.035 196.018 C 118.783 203.942,118.503 204.622,120.054 205.708 C 121.601 206.792,121.899 206.584,123.480 203.315 C 124.299 201.622,125.037 200.303,125.118 200.385 C 125.200 200.466,124.768 201.604,124.159 202.913 C 122.824 205.782,122.778 206.395,123.899 206.395 C 124.885 206.395,125.115 206.096,126.443 203.088 C 126.979 201.875,127.426 201.140,127.435 201.455 C 127.445 201.770,127.181 202.564,126.847 203.219 C 125.486 205.896,125.507 206.395,126.982 206.395 C 128.477 206.395,128.625 206.646,127.742 207.683 C 127.232 208.283,125.367 210.954,120.973 217.378 C 119.664 219.293,119.869 219.452,122.468 218.538 C 123.633 218.128,126.513 217.631,128.867 217.434 C 136.432 216.802,139.969 213.722,138.742 208.833 C 137.829 205.199,132.307 205.050,132.820 208.674 C 133.029 210.147,135.247 210.390,135.763 208.995 C 135.982 208.402,136.247 208.200,136.425 208.489 C 137.217 209.770,133.981 210.982,132.834 209.835 C 130.411 207.412,135.199 204.166,137.746 206.505 C 139.878 208.463,140.009 210.363,138.289 214.393 C 137.311 216.686,145.854 218.473,147.486 216.318 C 148.409 215.097,148.824 212.661,148.342 211.289 C 147.850 209.890,145.291 209.634,144.490 210.903 C 143.735 212.100,144.809 212.952,146.097 212.178 C 147.024 211.621,147.038 211.631,146.341 212.359 C 145.513 213.225,144.341 212.979,143.907 211.848 C 143.624 211.110,145.507 209.041,146.461 209.041 C 149.466 209.041,149.808 215.841,146.882 217.407 C 144.894 218.471,140.106 217.662,138.422 215.978 C 137.806 215.361,137.470 215.428,134.965 216.670 C 132.192 218.044,132.191 218.045,133.239 218.725 C 135.121 219.946,136.165 221.375,136.687 223.446 L 137.199 225.481 138.390 224.368 C 143.774 219.333,152.056 224.197,146.892 229.361 C 144.881 231.372,141.795 230.576,142.092 228.122 C 142.268 226.666,143.871 225.519,144.564 226.355 C 144.940 226.808,144.787 226.929,143.856 226.917 C 142.129 226.895,141.877 229.087,143.521 229.836 C 146.603 231.240,149.100 226.765,146.839 223.891 C 144.219 220.560,139.088 222.813,135.894 228.698 C 132.882 234.247,125.689 234.313,125.689 228.792 C 125.689 225.383,129.985 223.039,132.051 225.322 C 133.042 226.417,132.805 228.174,131.643 228.347 C 130.836 228.467,130.827 228.437,131.533 227.999 C 133.118 227.014,131.862 224.917,129.687 224.917 C 126.548 224.917,124.851 229.581,127.292 231.501 C 132.870 235.888,139.649 225.076,134.366 220.220 C 130.147 216.343,121.063 217.819,117.084 223.029 C 115.282 225.389,115.515 225.665,118.669 224.909 C 119.888 224.616,120.977 224.468,121.088 224.580 C 121.200 224.691,119.783 225.138,117.941 225.572 C 115.076 226.246,113.628 227.116,114.282 227.770 C 114.375 227.862,115.640 227.658,117.093 227.317 C 120.207 226.584,120.525 226.558,120.214 227.061 C 120.086 227.269,119.131 227.563,118.094 227.713 C 113.796 228.334,113.007 228.776,111.053 231.663 C 110.033 233.168,108.941 234.661,108.624 234.982 C 107.174 236.450,108.530 238.589,110.911 238.589 C 112.285 238.589,112.551 238.329,114.726 234.864 C 116.011 232.815,117.131 231.207,117.214 231.289 C 117.296 231.372,116.459 232.852,115.352 234.578 C 113.028 238.203,112.942 238.589,114.452 238.589 C 115.352 238.589,115.987 237.940,117.792 235.176 C 119.017 233.299,120.131 231.661,120.268 231.537 C 120.683 231.161,119.468 233.353,117.925 235.765 C 117.124 237.017,116.592 238.165,116.742 238.315 C 117.603 239.176,118.714 238.343,120.471 235.520 C 121.522 233.832,122.533 232.442,122.718 232.433 C 123.048 232.415,121.229 235.477,120.089 236.859 C 118.833 238.383,119.368 238.589,124.585 238.589 L 129.656 238.589 130.313 237.155 L 130.970 235.722 130.720 237.155 L 130.470 238.589 132.855 238.589 L 135.241 238.589 136.273 236.385 C 136.841 235.173,137.385 234.261,137.483 234.359 C 137.581 234.457,137.349 235.142,136.967 235.880 C 135.977 237.796,136.067 238.680,137.235 238.509 C 137.961 238.403,138.420 237.746,139.107 235.832 C 139.607 234.438,140.160 233.297,140.334 233.297 C 140.509 233.297,140.262 234.206,139.786 235.318 C 138.502 238.313,138.599 238.589,140.931 238.589 L 142.942 238.589 142.647 242.889 C 142.485 245.254,142.093 249.368,141.777 252.031 C 141.168 257.160,141.341 258.164,142.921 258.665 C 144.431 259.145,144.709 257.679,145.370 245.755 C 145.534 242.784,145.845 240.353,146.061 240.353 C 146.452 240.353,146.293 243.472,145.505 251.251 C 144.794 258.274,144.866 258.875,146.417 258.875 C 147.671 258.875,147.742 258.778,147.790 257.001 C 147.818 255.970,147.983 252.547,148.156 249.394 L 148.472 243.660 148.547 251.296 L 148.622 258.931 150.055 258.793 L 151.488 258.655 151.412 251.158 C 151.357 245.706,151.434 244.383,151.695 246.307 C 151.893 247.762,152.076 251.198,152.102 253.942 L 152.150 258.931 153.583 258.793 C 154.682 258.687,155.000 258.459,154.944 257.815 C 154.904 257.353,154.649 254.277,154.378 250.979 C 154.106 247.682,153.766 243.892,153.622 242.558 C 153.451 240.968,153.510 240.284,153.793 240.573 C 154.032 240.816,154.460 244.190,154.746 248.071 C 155.591 259.553,155.687 259.860,157.879 258.086 C 158.813 257.329,158.834 257.157,158.377 254.006 C 157.838 250.283,157.000 241.633,157.000 239.802 C 157.001 238.658,157.115 238.589,158.986 238.589 C 161.234 238.589,161.224 238.609,160.259 235.777 C 159.868 234.629,159.651 233.586,159.778 233.460 C 159.904 233.334,160.137 233.692,160.294 234.256 C 161.008 236.814,162.024 238.589,162.775 238.589 C 163.978 238.589,164.054 238.082,163.136 236.196 C 162.675 235.246,162.386 234.380,162.495 234.271 C 162.604 234.162,163.151 235.040,163.710 236.221 C 164.724 238.361,164.735 238.369,167.099 238.504 L 169.470 238.639 169.185 237.181 L 168.899 235.722 169.779 237.155 L 170.660 238.589 175.517 238.589 C 181.104 238.589,181.049 238.652,178.594 235.036 C 177.615 233.594,176.970 232.416,177.161 232.419 C 177.352 232.421,178.378 233.810,179.442 235.506 C 180.711 237.530,181.658 238.589,182.198 238.589 C 183.366 238.589,183.219 237.494,181.763 235.361 C 180.496 233.504,179.161 231.119,179.622 231.537 C 179.758 231.661,180.873 233.299,182.098 235.176 C 183.903 237.940,184.537 238.589,185.438 238.589 C 186.960 238.589,186.858 238.147,184.511 234.585 C 183.391 232.884,182.554 231.412,182.652 231.313 C 182.751 231.215,183.903 232.812,185.214 234.862 C 187.482 238.409,187.673 238.589,189.190 238.589 C 192.498 238.589,192.615 237.050,189.643 232.646 C 187.038 228.784,187.345 229.005,183.163 227.985 C 181.335 227.539,179.728 227.064,179.592 226.928 C 179.218 226.553,179.905 226.637,182.797 227.317 C 184.250 227.658,185.515 227.862,185.608 227.770 C 186.261 227.116,184.815 226.247,181.955 225.573 C 180.116 225.140,178.611 224.691,178.611 224.575 C 178.611 224.353,181.222 224.726,182.911 225.189 C 185.454 225.887,182.718 221.830,179.493 220.120 C 174.387 217.414,169.315 217.319,165.972 219.869 C 161.491 223.287,164.319 232.415,169.859 232.415 C 175.130 232.415,175.465 225.906,170.247 224.883 C 168.714 224.583,168.710 224.577,170.023 224.527 C 173.891 224.380,175.858 229.156,173.016 231.791 C 170.261 234.344,166.412 232.791,163.612 227.998 C 160.615 222.865,156.229 220.880,153.447 223.397 C 150.783 225.808,153.124 231.162,156.308 229.940 C 157.958 229.307,157.666 226.931,155.899 226.604 C 155.376 226.507,155.212 226.317,155.496 226.138 C 157.245 225.036,158.616 228.764,156.903 229.964 C 153.929 232.047,150.526 227.996,152.188 224.349 C 153.481 221.510,157.526 221.128,160.551 223.559 C 162.717 225.299,163.012 225.269,163.386 223.264 C 163.599 222.121,164.297 221.032,165.641 219.742 L 167.588 217.874 165.949 217.189 C 165.048 216.813,163.956 216.184,163.522 215.791 C 162.797 215.135,162.672 215.135,161.946 215.791 C 156.801 220.447,148.254 216.437,151.278 210.786 C 152.334 208.813,155.288 208.880,155.927 210.893 C 156.466 212.592,154.550 213.649,153.417 212.278 C 152.863 211.608,152.896 211.598,153.793 212.156 C 155.073 212.954,156.158 212.109,155.403 210.903 C 154.727 209.822,152.553 209.656,151.841 210.631 C 149.960 213.203,152.256 217.422,155.534 217.418 C 159.939 217.411,162.374 215.740,161.223 213.513 C 159.460 210.105,161.272 205.513,164.378 205.513 C 166.664 205.513,168.467 208.423,167.056 209.835 C 165.913 210.978,163.582 210.149,163.644 208.622 C 163.661 208.216,163.839 208.353,164.082 208.960 C 164.396 209.743,164.776 209.949,165.708 209.842 C 168.192 209.556,167.079 205.954,164.507 205.954 C 161.212 205.954,159.893 211.587,162.537 214.368 C 164.563 216.498,165.963 217.001,171.031 217.417 C 173.623 217.630,176.482 218.115,177.384 218.494 C 180.717 219.897,180.711 219.877,175.296 212.047 L 171.540 206.615 172.871 206.477 C 174.440 206.314,174.486 206.036,173.319 203.749 C 172.834 202.798,172.437 201.764,172.437 201.451 C 172.437 201.138,173.024 202.122,173.741 203.638 C 174.714 205.694,175.274 206.395,175.946 206.395 C 177.144 206.395,177.087 205.516,175.715 202.808 C 175.092 201.579,174.658 200.498,174.751 200.405 C 174.844 200.312,175.590 201.622,176.410 203.315 C 177.991 206.584,178.289 206.792,179.836 205.708 C 181.342 204.653,181.128 204.087,176.441 196.726 C 170.691 187.697,169.436 186.614,164.298 186.238 C 156.303 185.655,153.128 193.912,159.643 198.346 C 162.222 200.101,166.853 199.546,168.034 197.340 C 169.710 194.208,165.699 189.869,162.481 191.335 C 161.148 191.942,160.912 194.465,162.183 194.522 C 162.668 194.544,162.745 194.641,162.389 194.784 C 160.657 195.480,160.009 192.925,161.550 191.477 C 164.864 188.364,170.898 194.097,168.265 197.857 C 166.971 199.703,165.206 199.991,159.701 199.258 C 158.789 199.136,158.570 199.397,158.020 201.259 C 157.673 202.437,157.278 203.291,157.144 203.156 C 157.009 203.022,157.121 202.277,157.391 201.500 C 158.559 198.151,157.392 195.384,156.113 198.471 C 155.809 199.206,155.461 199.709,155.340 199.589 C 155.220 199.469,155.447 198.685,155.844 197.848 C 156.392 196.692,156.459 196.044,156.122 195.157 C 155.496 193.510,155.597 190.934,156.340 189.636 C 157.265 188.017,157.147 187.570,155.717 187.285 C 151.940 186.529,150.299 181.356,152.482 177.087 C 153.023 176.028,153.039 175.746,152.564 175.588 C 152.243 175.481,151.508 174.922,150.931 174.345 C 149.921 173.335,149.856 173.326,149.142 174.100 C 148.735 174.542,148.563 174.660,148.761 174.362 C 149.362 173.456,148.905 170.581,148.077 170.062 C 147.084 169.440,145.352 171.007,145.785 172.135 C 146.118 173.004,147.138 173.123,147.422 172.326 C 147.530 172.023,147.765 171.911,147.944 172.077 C 148.445 172.541,147.782 173.319,146.886 173.319 C 145.583 173.319,144.881 172.151,145.443 170.918 C 146.162 169.340,147.603 169.067,148.880 170.267 L 149.945 171.267 151.010 170.267 C 152.287 169.067,153.728 169.340,154.447 170.918 C 155.008 172.151,154.307 173.319,153.004 173.319 C 152.130 173.319,151.447 172.552,151.909 172.089 C 152.068 171.931,152.366 172.072,152.570 172.403 C 153.017 173.126,154.355 172.716,154.355 171.857 C 154.355 169.778,151.570 169.380,150.820 171.352 C 149.916 173.729,151.372 175.066,154.872 175.076 C 158.969 175.087,161.669 178.002,159.612 180.192 C 158.048 181.857,155.228 181.232,155.244 179.224 C 155.249 178.546,155.354 178.596,155.806 179.493 C 156.873 181.610,159.647 180.983,159.647 178.625 C 159.647 177.105,158.437 175.999,156.415 175.671 C 152.265 174.998,150.296 182.137,153.694 185.535 C 155.395 187.236,156.193 187.290,161.301 186.053 C 163.553 185.508,166.310 185.773,168.578 186.751 C 169.836 187.294,169.505 186.124,167.583 183.241 C 166.239 181.224,165.977 180.562,166.482 180.453 C 167.345 180.267,167.322 180.099,166.214 178.543 C 165.703 177.825,165.363 177.158,165.460 177.061 C 165.557 176.964,166.122 177.670,166.715 178.630 C 167.471 179.852,168.100 180.375,168.818 180.375 C 169.935 180.375,169.937 180.381,168.026 177.508 C 166.293 174.901,166.062 174.466,166.582 174.787 C 166.833 174.943,167.807 176.261,168.745 177.718 C 170.756 180.840,172.878 181.238,172.878 178.494 C 172.878 177.616,165.371 164.944,164.850 164.941 C 164.679 164.940,164.224 165.605,163.838 166.419 C 161.692 170.940,154.355 168.997,154.355 163.908 C 154.355 161.114,158.290 159.888,158.676 162.561 C 158.849 163.757,157.611 164.844,156.894 164.127 C 156.508 163.740,156.559 163.616,157.107 163.616 C 158.116 163.616,158.503 162.820,157.867 162.053 C 156.759 160.719,154.796 161.906,154.796 163.911 C 154.796 167.655,160.175 170.105,162.622 167.475 C 164.602 165.347,164.412 163.559,161.753 159.306 C 160.430 157.190,158.902 154.713,158.359 153.804 C 156.592 150.849,152.360 151.776,151.483 155.309 C 150.941 157.495,153.569 159.098,155.445 157.726 C 156.525 156.937,156.029 155.483,154.791 155.807 C 153.953 156.026,153.552 155.502,154.245 155.094 C 154.919 154.697,156.560 155.678,156.560 156.478 C 156.560 158.671,153.652 159.425,151.909 157.683 C 149.737 155.511,151.763 151.758,155.127 151.724 C 156.868 151.706,156.933 151.139,155.442 148.945 C 154.104 146.977,153.833 146.936,152.590 148.512 L 151.633 149.724 152.596 148.059 C 153.845 145.899,153.449 144.299,152.082 145.979 C 151.359 146.865,151.246 146.908,151.497 146.196 C 152.214 144.168,152.218 143.720,151.529 142.669 C 150.635 141.303,149.333 141.251,148.426 142.546 M348.386 142.778 C 348.054 143.445,347.733 144.105,347.673 144.243 C 347.613 144.382,347.852 145.077,348.204 145.787 L 348.844 147.078 347.964 146.041 C 346.759 144.620,346.182 145.967,347.233 147.747 C 347.633 148.424,347.952 149.146,347.943 149.351 C 347.933 149.557,347.629 149.179,347.267 148.512 C 346.365 146.848,345.651 146.989,344.486 149.061 C 343.383 151.024,343.538 151.709,345.086 151.709 C 348.348 151.709,350.196 156.755,347.489 158.268 C 345.085 159.611,342.180 157.489,343.971 155.698 C 344.458 155.211,345.154 154.931,345.525 155.074 C 346.611 155.491,346.293 156.015,345.094 155.786 C 344.155 155.606,343.991 155.739,343.991 156.681 C 343.991 158.130,345.822 158.671,347.345 157.673 C 349.914 155.989,347.818 152.142,344.342 152.159 L 342.448 152.169 339.250 157.465 C 335.886 163.037,335.513 164.381,336.698 166.672 C 338.578 170.307,344.873 168.369,344.873 164.155 C 344.873 162.168,344.036 161.198,342.689 161.625 C 341.652 161.954,341.450 163.616,342.448 163.616 C 342.811 163.616,343.109 163.815,343.109 164.057 C 343.109 164.755,342.432 164.573,341.598 163.652 C 340.869 162.846,340.876 162.763,341.750 161.888 C 343.620 160.018,345.395 161.073,345.475 164.100 C 345.586 168.360,339.619 170.684,336.825 167.470 C 336.158 166.703,335.612 165.803,335.612 165.471 C 335.612 164.045,334.382 165.573,330.899 171.328 C 326.925 177.892,326.338 179.995,328.400 180.289 C 329.126 180.393,329.783 179.802,331.220 177.753 C 332.251 176.285,333.171 175.083,333.266 175.083 C 333.528 175.083,332.716 176.455,331.454 178.145 C 330.090 179.971,330.043 180.375,331.196 180.375 C 331.729 180.375,332.528 179.685,333.239 178.611 C 334.654 176.473,335.171 176.249,333.884 178.332 C 332.790 180.103,332.756 180.375,333.631 180.375 C 334.091 180.375,333.663 181.326,332.240 183.467 C 330.169 186.581,329.996 187.680,331.749 186.585 C 333.287 185.625,337.771 185.452,339.746 186.277 C 345.557 188.705,350.412 182.857,347.098 177.422 C 345.130 174.195,339.140 176.019,340.248 179.508 C 340.804 181.260,343.991 181.184,343.991 179.418 C 343.991 178.664,344.112 178.555,344.510 178.953 C 344.908 179.351,344.840 179.680,344.221 180.364 C 342.213 182.584,338.886 180.472,340.032 177.705 C 340.768 175.929,342.507 175.091,345.217 175.208 C 347.831 175.321,349.283 174.318,349.283 172.400 C 349.283 171.339,348.331 169.791,347.679 169.791 C 346.889 169.791,345.755 170.847,345.755 171.584 C 345.755 172.674,347.014 173.225,347.597 172.391 C 347.955 171.878,347.997 171.886,347.847 172.437 C 347.512 173.663,345.552 173.243,345.398 171.913 C 345.168 169.920,347.160 168.918,348.858 170.173 L 350.150 171.129 351.040 170.239 C 352.688 168.591,355.655 170.419,354.583 172.422 C 354.034 173.448,352.304 173.528,352.107 172.536 C 352.046 172.227,352.096 172.177,352.220 172.426 C 352.696 173.386,354.135 172.909,354.135 171.791 C 354.135 170.229,352.574 169.469,351.452 170.485 C 349.081 172.631,350.898 174.909,355.188 175.169 C 358.461 175.367,360.382 176.758,360.246 178.831 C 360.195 179.610,360.166 179.599,359.999 178.736 C 359.126 174.223,352.934 174.898,352.135 179.594 C 351.197 185.105,355.058 188.402,360.020 186.329 C 361.997 185.503,365.273 185.508,367.585 186.341 C 368.556 186.691,369.420 186.980,369.507 186.983 C 369.846 186.998,369.056 185.486,367.491 183.128 C 366.424 181.520,366.039 180.596,366.388 180.480 C 367.155 180.224,367.054 179.591,366.012 178.128 C 365.510 177.423,365.210 176.847,365.344 176.847 C 365.478 176.847,366.114 177.641,366.756 178.611 C 367.425 179.622,368.275 180.375,368.747 180.375 C 369.779 180.375,369.787 179.900,368.779 178.560 C 367.563 176.944,366.438 175.083,366.677 175.083 C 366.795 175.083,367.700 176.273,368.688 177.729 C 370.474 180.358,371.498 180.917,372.569 179.846 C 373.491 178.923,373.154 178.093,369.216 171.589 C 365.184 164.929,364.487 164.173,364.036 165.969 C 363.435 168.366,359.150 170.127,357.622 168.605 C 357.425 168.408,358.300 168.312,359.568 168.392 C 364.863 168.726,365.250 164.978,360.691 157.505 L 357.442 152.178 355.628 152.164 C 352.139 152.137,350.038 156.030,352.625 157.726 C 354.060 158.665,356.119 158.102,356.119 156.770 C 356.119 156.109,355.826 155.903,354.906 155.916 C 353.617 155.934,353.288 155.487,354.304 155.097 C 355.079 154.800,356.781 155.967,356.781 156.795 C 356.781 158.667,352.925 159.213,351.640 157.523 C 350.062 155.448,352.195 151.709,354.957 151.709 C 356.780 151.709,356.873 151.340,355.592 149.172 C 354.325 147.026,353.648 146.838,352.812 148.401 C 352.487 149.007,352.135 149.415,352.028 149.308 C 351.921 149.201,352.252 148.525,352.765 147.805 C 353.279 147.083,353.576 146.183,353.427 145.795 C 353.055 144.824,352.486 144.918,352.139 146.009 C 351.980 146.512,351.752 146.827,351.633 146.708 C 351.514 146.589,351.657 146.043,351.951 145.494 C 352.392 144.670,352.348 144.238,351.697 143.030 C 350.698 141.175,349.242 141.064,348.386 142.778 M32.298 159.419 L 29.994 160.486 33.893 167.233 C 36.038 170.944,39.820 177.588,42.298 181.998 L 46.803 190.015 41.262 199.590 C 34.842 210.686,35.189 209.586,37.716 210.809 C 40.438 212.127,40.229 212.331,45.371 203.342 L 49.948 195.342 54.632 203.507 C 57.208 207.999,59.572 211.676,59.885 211.680 C 60.341 211.686,63.784 210.144,64.292 209.707 C 64.360 209.649,63.396 207.837,62.149 205.682 C 60.901 203.527,59.693 201.367,59.464 200.882 C 59.235 200.397,57.708 197.725,56.070 194.945 L 53.094 189.890 55.899 185.022 C 57.441 182.345,58.878 179.857,59.091 179.493 C 59.304 179.129,60.495 177.045,61.738 174.862 C 62.982 172.679,64.176 170.595,64.393 170.232 C 66.205 167.192,69.680 160.831,69.680 160.553 C 69.680 160.062,65.091 158.212,64.925 158.636 C 64.458 159.831,50.287 183.678,49.985 183.777 C 49.781 183.844,47.698 180.576,45.355 176.514 C 33.322 155.647,35.182 158.083,32.298 159.419 M232.304 159.277 C 229.745 160.405,229.743 160.149,232.355 164.595 C 237.410 173.199,246.527 189.552,246.527 190.016 C 246.527 190.294,244.041 194.815,241.003 200.063 C 237.965 205.312,235.533 209.653,235.600 209.711 C 235.667 209.769,236.751 210.333,238.009 210.965 L 240.295 212.113 243.793 206.057 C 245.717 202.726,247.890 198.942,248.621 197.648 L 249.952 195.297 254.524 203.322 C 259.622 212.271,259.535 212.185,262.230 210.876 C 264.724 209.664,265.010 210.565,258.642 199.598 L 253.117 190.082 253.854 188.646 C 254.428 187.527,263.513 171.570,269.046 161.962 L 269.871 160.529 267.696 159.427 C 266.499 158.820,265.432 158.324,265.324 158.324 C 265.217 158.324,263.198 161.648,260.838 165.711 C 258.478 169.774,255.060 175.641,253.242 178.749 L 249.936 184.399 247.667 180.513 C 246.418 178.375,243.033 172.508,240.145 167.475 C 237.256 162.442,234.781 158.331,234.646 158.339 C 234.510 158.346,233.456 158.769,232.304 159.277 M358.404 162.132 C 359.112 163.205,358.073 164.810,357.076 164.182 C 356.726 163.962,356.808 163.808,357.332 163.705 C 358.399 163.493,358.303 161.975,357.200 161.625 C 355.033 160.937,354.182 164.554,355.942 166.975 L 356.867 168.247 355.721 167.010 C 353.686 164.811,354.498 160.695,356.895 161.057 C 357.383 161.131,358.062 161.614,358.404 162.132 M348.950 174.392 C 348.460 174.956,347.798 175.504,347.480 175.610 C 347.022 175.763,347.060 176.138,347.664 177.411 C 349.629 181.552,347.325 187.431,343.737 187.431 C 342.447 187.431,342.456 187.280,343.603 189.874 C 344.449 191.787,344.486 192.203,343.992 194.262 C 343.518 196.240,343.544 196.724,344.193 197.978 C 344.603 198.771,344.846 199.513,344.733 199.625 C 344.621 199.738,344.260 199.223,343.932 198.482 C 342.605 195.484,341.343 197.387,342.323 200.908 C 342.687 202.214,342.838 203.192,342.660 203.082 C 342.482 202.972,342.105 201.964,341.822 200.843 C 341.362 199.014,341.209 198.838,340.335 199.133 C 334.642 201.057,329.792 198.253,331.488 194.018 C 332.687 191.025,336.449 189.591,338.285 191.427 C 339.444 192.587,339.297 194.635,338.037 194.854 C 337.178 195.004,337.177 194.991,337.992 194.375 C 340.163 192.735,337.440 190.278,334.706 191.410 C 329.674 193.495,330.962 199.332,336.455 199.337 C 345.328 199.344,346.278 187.301,337.487 186.259 C 331.832 185.590,329.491 187.312,323.724 196.382 C 318.997 203.817,318.577 205.044,320.464 205.904 C 321.863 206.541,321.925 206.485,323.694 202.977 C 324.459 201.461,325.166 200.221,325.267 200.221 C 325.491 200.221,324.668 202.142,323.608 204.093 C 322.569 206.006,322.616 206.395,323.883 206.395 C 324.750 206.395,325.168 205.911,326.165 203.751 C 326.836 202.297,327.453 201.176,327.537 201.260 C 327.621 201.344,327.293 202.285,326.809 203.352 C 325.613 205.988,325.672 206.395,327.248 206.395 L 328.586 206.395 324.333 212.594 C 319.714 219.327,319.609 219.689,322.602 218.546 C 323.704 218.125,326.576 217.609,328.984 217.400 C 336.199 216.774,340.058 213.639,338.966 209.290 C 337.981 205.366,332.966 204.815,332.966 208.631 C 332.966 210.335,335.380 210.570,336.039 208.931 C 336.284 208.322,336.449 208.203,336.466 208.622 C 336.538 210.376,333.385 211.090,332.540 209.511 C 331.887 208.291,331.955 207.986,333.165 206.680 C 336.289 203.310,340.699 207.799,338.990 212.610 C 337.970 215.483,338.007 215.595,340.308 216.613 C 345.683 218.990,350.059 215.639,348.134 210.620 C 347.625 209.294,344.432 209.886,344.432 211.307 C 344.432 212.262,345.827 213.016,346.096 212.207 C 346.192 211.921,346.476 211.687,346.728 211.687 C 347.005 211.687,346.969 211.949,346.637 212.348 C 345.863 213.281,344.549 213.170,343.990 212.125 C 343.469 211.151,345.082 209.041,346.348 209.041 C 349.802 209.041,349.991 216.031,346.576 217.445 C 344.523 218.296,340.781 217.767,338.946 216.368 L 337.366 215.162 336.131 216.041 C 335.452 216.525,334.363 217.054,333.711 217.218 C 332.346 217.561,332.137 218.560,333.349 218.945 C 334.636 219.354,335.681 220.752,336.493 223.152 L 337.240 225.357 338.521 224.215 C 342.383 220.770,347.317 221.368,348.118 225.377 C 348.859 229.078,344.983 232.151,342.685 229.685 C 341.278 228.174,342.443 225.402,344.202 226.077 C 345.259 226.483,344.985 227.021,343.833 226.801 C 341.809 226.414,342.003 229.358,344.044 230.006 C 346.689 230.845,348.790 225.747,346.672 223.629 C 343.833 220.790,338.836 223.008,336.115 228.315 C 335.643 229.236,334.707 230.485,334.034 231.092 C 332.849 232.160,332.853 232.140,334.178 230.430 C 339.345 223.757,334.336 216.491,325.786 218.257 C 321.649 219.111,318.555 220.802,317.004 223.056 C 315.416 225.365,315.570 225.623,318.150 224.974 C 319.237 224.700,320.485 224.488,320.923 224.503 C 321.361 224.518,320.236 224.928,318.421 225.415 C 313.246 226.804,312.246 228.519,317.310 227.321 C 320.229 226.631,320.894 226.552,320.504 226.942 C 320.360 227.086,318.590 227.570,316.571 228.019 C 314.332 228.517,312.728 229.117,312.459 229.559 C 312.216 229.957,311.174 231.453,310.143 232.885 C 307.483 236.579,307.707 238.589,310.780 238.589 C 312.113 238.589,312.438 238.280,314.730 234.836 C 316.104 232.772,317.303 231.158,317.395 231.251 C 317.488 231.343,316.563 232.928,315.342 234.773 C 312.743 238.697,312.771 238.591,314.333 238.583 C 315.365 238.577,315.906 238.025,317.967 234.867 C 319.299 232.827,320.471 231.239,320.572 231.340 C 320.672 231.440,319.830 232.911,318.701 234.609 C 316.389 238.086,316.219 238.711,317.641 238.509 C 318.307 238.415,319.269 237.387,320.570 235.381 C 321.636 233.738,322.595 232.481,322.701 232.588 C 322.808 232.694,322.185 233.838,321.316 235.128 C 318.988 238.584,318.993 238.589,324.575 238.589 L 329.415 238.589 330.099 237.266 C 330.936 235.647,331.337 235.529,330.750 237.074 C 330.513 237.696,330.320 238.291,330.320 238.397 C 330.320 238.502,331.422 238.589,332.770 238.589 L 335.220 238.589 336.090 236.622 C 336.569 235.541,337.167 234.528,337.421 234.371 C 337.675 234.215,337.470 234.893,336.967 235.879 C 335.821 238.127,335.821 238.589,336.968 238.589 C 337.666 238.589,338.154 237.960,339.025 235.942 C 339.653 234.486,340.250 233.378,340.352 233.480 C 340.454 233.581,340.123 234.599,339.618 235.742 C 338.373 238.556,338.388 238.589,340.939 238.589 C 343.146 238.589,343.176 238.607,342.943 239.802 C 342.813 240.469,342.590 242.602,342.448 244.542 C 342.305 246.483,341.981 250.219,341.728 252.844 C 341.300 257.271,341.325 257.663,342.078 258.233 C 344.041 259.720,344.235 259.290,344.833 252.150 C 345.142 248.451,345.551 244.234,345.741 242.778 L 346.087 240.132 346.133 242.778 C 346.158 244.234,345.889 248.104,345.535 251.378 C 344.660 259.465,344.607 258.957,346.307 258.793 L 347.740 258.655 347.985 251.501 C 348.119 247.566,348.392 244.192,348.592 244.004 C 348.791 243.815,348.814 247.084,348.642 251.268 L 348.330 258.875 349.966 258.875 L 351.601 258.875 351.406 251.378 C 351.299 247.255,351.373 243.881,351.570 243.881 C 351.768 243.881,351.931 246.213,351.933 249.063 C 351.939 257.401,352.218 258.875,353.785 258.875 L 355.077 258.875 354.793 255.237 C 354.637 253.236,354.325 250.016,354.101 248.082 C 353.877 246.148,353.719 243.568,353.749 242.349 L 353.805 240.132 354.151 242.778 C 354.341 244.234,354.719 248.104,354.992 251.378 C 355.555 258.147,355.711 258.875,356.590 258.875 C 357.630 258.875,359.091 257.133,358.746 256.305 C 358.454 255.605,358.053 251.809,357.305 242.668 L 356.971 238.589 359.081 238.589 C 361.493 238.589,361.511 238.544,360.272 235.742 C 359.766 234.599,359.464 233.553,359.600 233.417 C 359.736 233.281,359.964 233.546,360.108 234.005 C 360.951 236.705,362.119 238.589,362.949 238.589 C 364.007 238.589,364.066 237.936,363.165 236.208 C 362.798 235.505,362.575 234.852,362.670 234.758 C 362.764 234.663,363.265 235.486,363.783 236.587 L 364.723 238.589 367.147 238.589 C 369.644 238.589,369.932 238.326,369.113 236.796 C 368.862 236.327,368.758 235.943,368.882 235.943 C 369.005 235.943,369.414 236.538,369.791 237.266 L 370.475 238.589 375.535 238.589 C 378.318 238.589,380.595 238.480,380.595 238.347 C 380.595 238.214,379.939 237.073,379.137 235.811 C 377.052 232.532,376.988 232.415,377.271 232.415 C 377.411 232.415,378.425 233.804,379.523 235.502 C 380.872 237.587,381.799 238.589,382.381 238.589 C 383.462 238.589,383.482 237.696,382.430 236.333 C 381.324 234.900,379.135 231.092,379.417 231.092 C 379.542 231.092,380.679 232.778,381.944 234.840 C 383.966 238.137,384.395 238.589,385.506 238.589 C 386.201 238.589,386.770 238.498,386.770 238.388 C 386.770 238.103,384.189 233.754,383.160 232.304 C 382.687 231.637,382.417 231.092,382.560 231.092 C 382.703 231.092,383.908 232.778,385.239 234.840 C 387.897 238.962,389.559 239.741,391.385 237.723 C 392.340 236.668,392.190 236.243,389.540 232.499 C 386.893 228.759,386.767 228.670,383.138 227.985 C 381.475 227.671,380.007 227.241,379.877 227.030 C 379.647 226.658,380.453 226.779,383.669 227.597 C 385.326 228.019,386.279 227.555,385.346 226.781 C 385.028 226.517,383.283 225.902,381.468 225.415 C 379.654 224.928,378.528 224.518,378.967 224.503 C 379.405 224.488,380.653 224.700,381.740 224.974 C 384.335 225.627,384.476 225.368,382.825 222.968 C 378.995 217.402,367.111 216.337,364.530 221.329 C 361.367 227.444,368.390 235.840,372.898 231.332 C 375.204 229.026,373.498 224.966,370.209 224.931 C 368.030 224.909,366.644 227.636,368.578 228.141 C 369.229 228.312,369.237 228.351,368.632 228.394 C 366.855 228.521,366.706 225.961,368.423 224.814 C 372.084 222.369,376.293 228.405,373.132 231.566 C 370.340 234.358,366.264 232.798,363.484 227.873 C 360.409 222.424,354.822 220.499,352.839 224.204 C 351.333 227.018,353.627 230.984,356.106 229.855 C 357.746 229.107,357.757 226.476,356.119 226.789 C 354.919 227.019,354.602 226.494,355.688 226.077 C 357.449 225.401,358.664 228.326,357.222 229.768 C 355.286 231.704,351.929 229.694,351.929 226.600 C 351.929 221.706,356.602 220.401,361.171 224.020 L 362.852 225.351 363.341 223.408 C 363.865 221.329,365.736 218.743,366.717 218.743 C 368.241 218.743,367.544 217.859,365.044 216.619 C 362.351 215.285,362.286 215.275,361.416 216.090 C 359.247 218.121,354.527 218.538,352.592 216.869 C 350.436 215.008,350.398 210.656,352.528 209.515 C 354.427 208.499,356.933 210.706,355.738 212.342 C 355.135 213.166,353.252 212.941,353.252 212.044 C 353.252 211.761,353.518 211.799,353.933 212.143 C 354.774 212.842,355.612 212.160,355.385 210.962 C 354.883 208.318,351.488 210.107,351.488 213.015 C 351.488 216.339,352.461 217.202,356.191 217.188 C 360.531 217.171,363.075 215.071,361.123 213.119 C 359.603 211.598,360.929 206.897,363.166 205.878 C 365.556 204.789,368.437 207.083,367.437 209.279 C 366.613 211.088,363.345 210.552,363.424 208.622 C 363.441 208.203,363.606 208.322,363.851 208.931 C 364.572 210.725,366.924 210.315,366.924 208.395 C 366.924 205.865,364.231 205.078,362.273 207.036 C 361.408 207.901,361.191 208.568,361.191 210.359 C 361.191 214.824,363.922 216.788,370.998 217.410 C 373.535 217.633,376.444 218.148,377.460 218.555 C 380.635 219.825,380.299 219.055,373.553 209.592 L 371.274 206.395 372.627 206.395 C 374.260 206.395,374.349 205.760,373.067 203.247 C 372.565 202.263,372.250 201.363,372.366 201.247 C 372.482 201.130,373.119 202.241,373.780 203.715 C 374.774 205.929,375.169 206.395,376.055 206.395 C 377.300 206.395,377.214 205.807,375.459 202.315 C 374.880 201.163,374.506 200.221,374.629 200.221 C 374.751 200.221,375.551 201.610,376.406 203.308 C 378.056 206.584,378.566 206.888,380.200 205.564 C 381.506 204.507,381.538 204.577,375.618 195.534 C 370.114 187.128,369.073 186.332,363.582 186.330 C 357.535 186.328,354.238 191.204,357.126 195.877 C 359.725 200.081,367.415 200.509,368.420 196.505 C 369.222 193.308,364.337 189.572,362.055 191.637 C 360.903 192.680,360.961 193.977,362.183 194.497 C 363.161 194.913,363.159 194.918,362.073 194.814 C 359.519 194.569,361.053 190.518,363.699 190.518 C 365.294 190.518,367.651 192.187,368.465 193.892 C 370.501 198.155,365.439 201.157,359.603 199.148 C 358.785 198.866,358.592 199.103,357.948 201.179 C 357.548 202.471,357.324 202.933,357.450 202.205 C 358.170 198.063,358.186 197.677,357.646 197.344 C 357.109 197.012,356.942 197.161,355.573 199.190 C 355.272 199.636,355.355 199.263,355.757 198.362 C 356.397 196.927,356.417 196.427,355.913 194.325 C 355.381 192.111,355.409 191.778,356.279 189.981 C 357.458 187.546,357.454 187.431,356.179 187.431 C 352.615 187.431,350.289 181.591,352.290 177.667 L 353.091 176.095 351.466 174.731 L 349.841 173.367 348.950 174.392 M356.991 180.632 C 357.558 180.774,358.486 180.665,359.055 180.388 C 360.039 179.909,360.048 179.918,359.232 180.571 C 357.684 181.812,354.368 180.413,355.331 178.925 C 355.563 178.566,355.723 178.717,355.818 179.382 C 355.905 179.987,356.361 180.474,356.991 180.632 M33.598 212.787 C 33.125 213.826,36.038 216.097,37.842 216.097 C 39.667 216.097,39.089 213.858,36.993 212.804 C 34.258 211.431,34.216 211.431,33.598 212.787 M62.955 212.818 C 60.689 213.998,60.567 214.204,61.432 215.388 C 62.031 216.207,66.593 214.786,66.593 213.780 C 66.593 211.722,65.577 211.453,62.955 212.818 M233.733 212.578 C 232.835 214.256,237.342 216.913,238.470 215.371 C 239.327 214.199,239.195 213.991,236.839 212.797 C 234.206 211.463,234.325 211.471,233.733 212.578 M262.991 212.784 C 260.712 213.850,260.148 215.204,261.730 215.811 C 263.203 216.376,266.839 213.989,266.302 212.810 C 265.686 211.460,265.820 211.461,262.991 212.784 M30.379 218.412 L 28.886 220.728 20.212 220.948 C 15.441 221.069,11.422 221.284,11.281 221.426 C 10.436 222.275,8.040 228.720,8.426 229.107 C 9.066 229.751,28.634 229.680,29.768 229.030 C 30.576 228.568,36.604 219.175,36.604 218.380 C 36.604 218.030,32.912 216.097,32.242 216.097 C 32.038 216.097,31.200 217.139,30.379 218.412 M65.050 217.054 C 64.079 217.559,63.230 218.019,63.162 218.077 C 62.910 218.291,68.734 227.811,69.589 228.584 C 71.415 230.235,91.740 230.174,91.724 228.518 C 91.705 226.641,88.440 221.169,87.321 221.140 C 86.714 221.124,82.806 221.074,78.636 221.030 L 71.053 220.948 69.602 218.523 C 67.999 215.843,67.615 215.719,65.050 217.054 M230.641 218.119 C 229.140 220.895,229.101 220.906,220.457 220.979 C 210.748 221.060,209.992 221.504,208.373 228.070 L 208.086 229.238 212.863 229.565 C 219.854 230.043,229.263 229.523,230.281 228.601 C 231.123 227.839,236.987 218.304,236.744 218.092 C 236.243 217.653,232.786 216.097,232.313 216.097 C 231.995 216.097,231.243 217.007,230.641 218.119 M265.148 217.099 C 262.931 218.212,262.867 217.868,266.426 223.896 C 269.914 229.802,268.976 229.360,278.587 229.620 C 292.412 229.995,292.628 229.893,289.942 224.233 L 288.460 221.109 279.952 221.014 C 270.488 220.908,270.854 221.025,268.929 217.480 C 268.052 215.866,267.678 215.828,265.148 217.099 M331.460 224.814 C 332.916 225.799,333.096 228.478,331.702 228.411 C 331.244 228.389,331.183 228.295,331.533 228.153 C 332.234 227.870,332.248 226.140,331.555 225.447 C 329.688 223.580,326.150 225.879,326.150 228.958 C 326.150 231.476,327.556 232.580,330.410 232.306 C 331.557 232.196,332.391 232.275,332.263 232.481 C 331.742 233.325,328.180 232.870,326.936 231.800 C 323.641 228.965,327.893 222.399,331.460 224.814 M167.947 226.224 C 167.440 227.054,167.475 227.258,168.221 227.811 C 168.981 228.374,168.992 228.445,168.317 228.445 C 167.900 228.445,167.439 228.135,167.293 227.756 C 167.013 227.027,167.893 224.637,168.294 225.038 C 168.423 225.167,168.267 225.701,167.947 226.224 M40.353 226.850 C 30.996 228.878,34.934 231.796,47.688 232.284 C 61.020 232.794,69.518 229.923,62.183 227.386 C 59.044 226.301,44.530 225.944,40.353 226.850 M239.971 226.897 C 229.477 229.259,237.953 232.859,252.664 232.288 C 263.885 231.853,268.374 229.392,261.799 227.281 C 258.619 226.259,243.949 226.001,239.971 226.897 M35.281 235.304 L 35.281 239.516 36.718 240.116 C 42.050 242.344,58.060 242.344,63.393 240.116 L 64.829 239.516 64.829 235.304 C 64.829 232.987,64.753 231.092,64.659 231.092 C 64.565 231.092,63.940 231.376,63.269 231.725 C 59.520 233.669,42.629 233.880,37.927 232.041 C 36.593 231.519,35.452 231.092,35.391 231.092 C 35.331 231.092,35.281 232.987,35.281 235.304 M235.408 233.696 C 235.241 238.125,235.371 239.167,236.162 239.745 C 240.169 242.675,262.605 242.306,264.712 239.275 C 265.488 238.159,265.095 230.977,264.278 231.334 C 259.115 233.584,243.516 234.053,238.037 232.122 L 235.502 231.228 235.408 233.696 " stroke="#ae1e2c" fill="none" fill-rule="evenodd"></path></g></svg>